# xmcd
#
# Track frame offsets: 
#        150
#        21339
#        37919
#        51899
#        76394
#        98533
#        121356
#        145034
#        166397
#        184962
#        206087
#        228400
#
# Disc length: 3290 seconds
#
# Revision: 0
# Processed by: cddbd v1.5.2PL0 Copyright (c) Steve Scherf et al.
# Submitted via: ExactAudioCopy v0.99pb4
#
DISCID=9b0cd80c
DTITLE=Phuong Linh and Ha Anh Tuan - ngay hat doi...
DYEAR=2007
DGENRE=vpop
TTITLE0=Yeu em
TTITLE1=12 gio
TTITLE2=Bai hat doi cho em
TTITLE3=Dem tinh yeu
TTITLE4=Con mua tinh yeu
TTITLE5=Tuyet roi mua he
TTITLE6=Bien va anh trang
TTITLE7=Mua
TTITLE8=Thien duong goi ten
TTITLE9=Yeu em(Instrumental)
TTITLE10=Con mua tinh yeu(Instrumental)
TTITLE11=Thien duong goi ten(Instrumental)
EXTD=
EXTT0=
EXTT1=
EXTT2=
EXTT3=
EXTT4=
EXTT5=
EXTT6=
EXTT7=
EXTT8=
EXTT9=
EXTT10=
EXTT11=
PLAYORDER=
